<svg xmlns="http://www.w3.org/2000/svg" width="53" height="62" viewBox="0 0 53 62">
  <g id="noun_bin_1412943" transform="translate(-23.5 -19.5)">
    <g id="Group_38" data-name="Group 38">
      <path id="Path_1" data-name="Path 1" d="M70.5,26.943,68.652,75.938A2.7,2.7,0,0,1,66,78.5H34a2.691,2.691,0,0,1-2.652-2.562L29.5,26.943a1.5,1.5,0,1,0-3,.113L28.35,76.051A5.691,5.691,0,0,0,34,81.5H66a5.694,5.694,0,0,0,5.65-5.449L73.5,27.057a1.5,1.5,0,1,0-3-.113Z" fill="#ff5f5f"/>
      <path id="Path_2" data-name="Path 2" d="M49,38V72a1.5,1.5,0,0,0,3,0V38a1.5,1.5,0,0,0-3,0Z" fill="#ff5f5f"/>
      <path id="Path_3" data-name="Path 3" d="M37.5,38.044l1,34a1.5,1.5,0,1,0,3-.088l-1-34a1.5,1.5,0,0,0-3,.088Z" fill="#ff5f5f"/>
      <path id="Path_4" data-name="Path 4" d="M59.5,37.956l-1,34a1.5,1.5,0,0,0,3,.088l1-34a1.5,1.5,0,1,0-3-.088Z" fill="#ff5f5f"/>
      <path id="Path_5" data-name="Path 5" d="M25,28H75a1.5,1.5,0,0,0,0-3H25a1.5,1.5,0,0,0,0,3Z" fill="#ff5f5f"/>
      <path id="Path_6" data-name="Path 6" d="M41.393,26.557l1.07-2.676A2.514,2.514,0,0,1,44.5,22.5h11a2.5,2.5,0,0,1,2.037,1.381l1.07,2.676,2.785-1.114-1.07-2.676A5.47,5.47,0,0,0,55.5,19.5h-11a5.482,5.482,0,0,0-4.822,3.267l-1.07,2.676Z" fill="#ff5f5f"/>
    </g>
  </g>
</svg>
